<svg width="48" height="48" viewBox="0 0 40 40" fill="none" xmlns="http://www.w3.org/2000/svg">
  <title>BharatFlow AI favicon</title>
  <defs>
    <linearGradient id="bharatflow-favicon-gradient" x1="4" x2="36" y1="2" y2="38" gradientUnits="userSpaceOnUse">
      <stop stop-color="#FFB86C"/>
      <stop offset="0.5" stop-color="#FF4D2E"/>
      <stop offset="1" stop-color="#0F9F6E"/>
    </linearGradient>
  </defs>
  <rect width="40" height="40" rx="10" fill="url(#bharatflow-favicon-gradient)"/>
  <rect width="40" height="40" rx="10" stroke="#161616" stroke-opacity="0.14"/>
  <path d="M11 11H22C25.4 11 27.5 12.9 27.5 15.8C27.5 17.6 26.6 19 25 19.8C27.1 20.5 28.4 22.1 28.4 24.3C28.4 27.4 26 29.5 22.3 29.5H11V11ZM15.2 14.5V18.4H21.3C22.6 18.4 23.3 17.7 23.3 16.5C23.3 15.3 22.5 14.5 21.1 14.5H15.2ZM15.2 21.5V26H21.8C23.3 26 24.2 25.1 24.2 23.8C24.2 22.4 23.2 21.5 21.7 21.5H15.2Z" fill="white"/>
</svg>
